REM DIRINDEX 1\2\5,1\2\6,1\2\7,1\2\8,1\3\9,1\3\10,1\3\11,1\4\12,1\4\13,1\4\14,1\4\15,1\4\16
REM DIRNAME cjc034,folder01,folder02,folder03,folder04,folder05,folder06,folder07,folder08,folder09,folder10,folder11,folder12,folder13,folder14,folder15
TITLE ""
FILE "1200_sec02_0572_0581.mp3" MP3
  TRACK 01 AUDIO
    TITLE "0:"
    INDEX 01 00:00:00
  TRACK 02 AUDIO
    TITLE "12:cjc034_05936"
    INDEX 01 00:00:17
  TRACK 03 AUDIO
    TITLE "0:"
    INDEX 01 00:01:69
  TRACK 04 AUDIO
    TITLE "13:cjc034_05937"
    INDEX 01 00:02:30
  TRACK 05 AUDIO
    TITLE "0:"
    INDEX 01 00:03:63
  TRACK 06 AUDIO
    TITLE "14:cjc034_05938"
    INDEX 01 00:04:21
  TRACK 07 AUDIO
    TITLE "0:"
    INDEX 01 00:05:71
  TRACK 08 AUDIO
    TITLE "15:cjc034_05939"
    INDEX 01 00:06:31
  TRACK 09 AUDIO
    TITLE "0:"
    INDEX 01 00:11:21
  TRACK 10 AUDIO
    TITLE "12:cjc034_05940"
    INDEX 01 00:12:52
  TRACK 11 AUDIO
    TITLE "0:"
    INDEX 01 00:16:26
  TRACK 12 AUDIO
    TITLE "13:cjc034_05941"
    INDEX 01 00:16:57
  TRACK 13 AUDIO
    TITLE "0:"
    INDEX 01 00:18:35
  TRACK 14 AUDIO
    TITLE "14:cjc034_05942"
    INDEX 01 00:18:66
  TRACK 15 AUDIO
    TITLE "0:"
    INDEX 01 00:22:38
  TRACK 16 AUDIO
    TITLE "15:cjc034_05943"
    INDEX 01 00:22:72
  TRACK 17 AUDIO
    TITLE "0:"
    INDEX 01 00:26:66
  TRACK 18 AUDIO
    TITLE "12:cjc034_05944"
    INDEX 01 00:28:27
  TRACK 19 AUDIO
    TITLE "0:"
    INDEX 01 00:30:06
  TRACK 20 AUDIO
    TITLE "13:cjc034_05945"
    INDEX 01 00:30:40
  TRACK 21 AUDIO
    TITLE "0:"
    INDEX 01 00:31:65
  TRACK 22 AUDIO
    TITLE "14:cjc034_05946"
    INDEX 01 00:32:21
  TRACK 23 AUDIO
    TITLE "0:"
    INDEX 01 00:34:00
  TRACK 24 AUDIO
    TITLE "15:cjc034_05947"
    INDEX 01 00:34:34
  TRACK 25 AUDIO
    TITLE "0:"
    INDEX 01 00:38:41
  TRACK 26 AUDIO
    TITLE "12:cjc034_05948"
    INDEX 01 00:39:74
  TRACK 27 AUDIO
    TITLE "0:"
    INDEX 01 00:41:36
  TRACK 28 AUDIO
    TITLE "13:cjc034_05949"
    INDEX 01 00:41:71
  TRACK 29 AUDIO
    TITLE "0:"
    INDEX 01 00:43:48
  TRACK 30 AUDIO
    TITLE "14:cjc034_05950"
    INDEX 01 00:44:05
  TRACK 31 AUDIO
    TITLE "0:"
    INDEX 01 00:45:41
  TRACK 32 AUDIO
    TITLE "15:cjc034_05951"
    INDEX 01 00:46:02
  TRACK 33 AUDIO
    TITLE "0:"
    INDEX 01 00:49:29
  TRACK 34 AUDIO
    TITLE "12:cjc034_05952"
    INDEX 01 00:50:64
  TRACK 35 AUDIO
    TITLE "0:"
    INDEX 01 00:52:39
  TRACK 36 AUDIO
    TITLE "13:cjc034_05953"
    INDEX 01 00:52:73
  TRACK 37 AUDIO
    TITLE "0:"
    INDEX 01 00:56:65
  TRACK 38 AUDIO
    TITLE "14:cjc034_05954"
    INDEX 01 00:57:23
  TRACK 39 AUDIO
    TITLE "0:"
    INDEX 01 00:59:00
  TRACK 40 AUDIO
    TITLE "15:cjc034_05955"
    INDEX 01 00:59:32
  TRACK 41 AUDIO
    TITLE "0:"
    INDEX 01 01:02:59
  TRACK 42 AUDIO
    TITLE "12:cjc034_05956"
    INDEX 01 01:04:19
  TRACK 43 AUDIO
    TITLE "0:"
    INDEX 01 01:06:06
  TRACK 44 AUDIO
    TITLE "13:cjc034_05957"
    INDEX 01 01:06:38
  TRACK 45 AUDIO
    TITLE "0:"
    INDEX 01 01:08:11
  TRACK 46 AUDIO
    TITLE "14:cjc034_05958"
    INDEX 01 01:08:44
  TRACK 47 AUDIO
    TITLE "0:"
    INDEX 01 01:10:30
  TRACK 48 AUDIO
    TITLE "15:cjc034_05959"
    INDEX 01 01:10:63
  TRACK 49 AUDIO
    TITLE "0:"
    INDEX 01 01:14:23
  TRACK 50 AUDIO
    TITLE "12:cjc034_05960"
    INDEX 01 01:15:58
  TRACK 51 AUDIO
    TITLE "0:"
    INDEX 01 01:17:41
  TRACK 52 AUDIO
    TITLE "13:cjc034_05961"
    INDEX 01 01:18:00
  TRACK 53 AUDIO
    TITLE "0:"
    INDEX 01 01:21:53
  TRACK 54 AUDIO
    TITLE "14:cjc034_05962"
    INDEX 01 01:22:15
  TRACK 55 AUDIO
    TITLE "0:"
    INDEX 01 01:24:02
  TRACK 56 AUDIO
    TITLE "15:cjc034_05963"
    INDEX 01 01:24:30
  TRACK 57 AUDIO
    TITLE "0:"
    INDEX 01 01:27:44
  TRACK 58 AUDIO
    TITLE "16:cjc034_05964"
    INDEX 01 01:29:01
  TRACK 59 AUDIO
    TITLE "0:"
    INDEX 01 01:32:35
  TRACK 60 AUDIO
    TITLE "12:cjc034_05965"
    INDEX 01 01:33:36
  TRACK 61 AUDIO
    TITLE "0:"
    INDEX 01 01:35:02
  TRACK 62 AUDIO
    TITLE "13:cjc034_05966"
    INDEX 01 01:35:35
  TRACK 63 AUDIO
    TITLE "0:"
    INDEX 01 01:37:71
  TRACK 64 AUDIO
    TITLE "14:cjc034_05967"
    INDEX 01 01:38:30
  TRACK 65 AUDIO
    TITLE "0:"
    INDEX 01 01:39:72
  TRACK 66 AUDIO
    TITLE "15:cjc034_05968"
    INDEX 01 01:40:27
  TRACK 67 AUDIO
    TITLE "0:"
    INDEX 01 01:45:02
  TRACK 68 AUDIO
    TITLE "12:cjc034_05969"
    INDEX 01 01:46:37
  TRACK 69 AUDIO
    TITLE "0:"
    INDEX 01 01:48:20
  TRACK 70 AUDIO
    TITLE "13:cjc034_05970"
    INDEX 01 01:48:56
  TRACK 71 AUDIO
    TITLE "0:"
    INDEX 01 01:51:62
  TRACK 72 AUDIO
    TITLE "14:cjc034_05971"
    INDEX 01 01:52:22
  TRACK 73 AUDIO
    TITLE "0:"
    INDEX 01 01:54:05
  TRACK 74 AUDIO
    TITLE "15:cjc034_05972"
    INDEX 01 01:54:39
  TRACK 75 AUDIO
    TITLE "0:"
    INDEX 01 01:59:38
  TRACK 76 AUDIO
    TITLE "12:cjc034_05973"
    INDEX 01 02:00:69
  TRACK 77 AUDIO
    TITLE "0:"
    INDEX 01 02:02:44
  TRACK 78 AUDIO
    TITLE "13:cjc034_05974"
    INDEX 01 02:03:02
  TRACK 79 AUDIO
    TITLE "0:"
    INDEX 01 02:06:44
  TRACK 80 AUDIO
    TITLE "14:cjc034_05975"
    INDEX 01 02:07:02
  TRACK 81 AUDIO
    TITLE "0:"
    INDEX 01 02:08:50
  TRACK 82 AUDIO
    TITLE "15:cjc034_05976"
    INDEX 01 02:09:09
  TRACK 83 AUDIO
    TITLE "0:"
    INDEX 01 02:13:09
